<!-- Generated by IcoMoon.io -->
<svg version="1.1"
    xmlns="http://www.w3.org/2000/svg" width="32" height="32" viewBox="0 0 32 32">
    <path d="M32 25.608c0 0.88-0.714 1.592-1.592 1.592h-12.816c-0.879 0-1.592-0.713-1.592-1.592s0.713-1.592 1.592-1.592h12.816c0.88 0 1.592 0.712 1.592 1.592zM32 16c0 0.88-0.714 1.592-1.592 1.592h-28.816c-0.879 0-1.592-0.713-1.592-1.592s0.713-1.592 1.592-1.592h28.816c0.88 0 1.592 0.714 1.592 1.592zM30.408 7.984c0.879 0 1.592-0.713 1.592-1.592s-0.713-1.592-1.592-1.592h-19.216c-0.879 0-1.592 0.713-1.592 1.592s0.713 1.592 1.592 1.592h19.216z"></path>
</svg>
